<?xml version="1.0" encoding="utf-8"?>
<!-- Generator: Adobe Illustrator 19.2.1, SVG Export Plug-In . SVG Version: 6.00 Build 0)  -->
<svg version="1.1" id="layer" xmlns="http://www.w3.org/2000/svg" xmlns:xlink="http://www.w3.org/1999/xlink" x="0px" y="0px"
	 viewBox="0 0 652 652" style="enable-background:new 0 0 652 652;" xml:space="preserve">
<style type="text/css">
	.st0{fill:#E4001E;}
	.st1{font-family:'ArialMT';}
	.st2{font-size:24.6062px;}
</style>
<g>
	<path class="st0" d="M211.7,269.1c-1.1-32-22.2-54.4-51.4-54.4H60l-16,26.3H128l-59.8,108l-21.5,0.1l-20.6,42c0.8,0,1.7,0,2.6,0
		c6.3,0,12.3-0.2,17.9-0.6C162.6,382.7,213.5,322.1,211.7,269.1 M179.4,278.9c-16.7,62.3-66.5,61.6-66.5,61.6l44.3-85.5
		C157.3,255.1,187.1,250.5,179.4,278.9"/>
	<path class="st0" d="M331.6,436.7c-13.2,0-23.1-4.4-27.3-6.7l23.9-34.2c7.8,5.3,15.2,8.1,22.2,8.1c23.4,0,32.8-29.5,33.1-30.8
		l1.3-4.3l-4.4,0.9c-8.5,1.8-15.9,2.7-21.9,2.7h0c-10.6,0-17.3-2.8-19.8-8.3c-7.8-16.6,20.1-55.9,32.4-70.8l24.2-1.1L376.4,329
		c-4.8,10.9-5.8,18-3.2,21.9c0.9,1.4,2.7,3,6.1,3c7.6,0,18.9-8.8,24.2-16.8c16.6-24.6,26.8-40.7,29.6-45.2h26L413,375.3
		C382.6,426,352,436.7,331.6,436.7"/>
	<path class="st0" d="M525,373.2l46.1-79.8h22.6c0.3,0.4-1,3.9-0.1,3.6c16-6,30.1-2.7,32.5-1.9l-16.9,23.5
		c-2.4-0.7-6.6-1.8-11.3-1.8c-8.4,0-14.7,3.4-18.2,9.8l-28.6,46.5H525z"/>
	<path class="st0" d="M482.8,340.6c1.6,0,3.5,0.4,5.4,1c0.1,0,9.6,1.6,15,1.6c1.8,0,2.3-0.2,2.8-0.3c23.2-4,34.7-19.2,33.8-31.5
		c-0.9-12.2-13.7-20.1-33.6-20.4c-8.3,0-34.1,6.9-48.2,23.9c-8.9,10.8-12,23.9-9.2,38.9c2.1,11.3,17.7,20.1,35.5,20.1
		c11.6,0,21.9-3.8,28.8-10.4c2.1-2.4,5.1-7.3,4.5-10.2c-0.1-0.4-0.2-0.8-0.7-1.2c-3.1,1.4-10.5,4.5-18.7,4.5
		c-5.6,0-10.6-1.4-14.7-4.3c-4.5-3.1-6.4-6.1-5.6-8.7C478.2,342.7,479.2,340.6,482.8,340.6 M511.7,309.3c6.6,6.7-11,18.3-22.7,14.6
		C479,320.7,503.8,301.2,511.7,309.3"/>
	<path class="st0" d="M275.3,374.2c-8.5-0.3-14.7-0.7-17.9-3.4c-2.5-2.1-3.7-3.4-4.6-4.4c-0.9-1-1.7-1.9-3.1-2.9
		c-1-0.7-2.1-1.1-3.3-1.1c-2.3,0-4.5,1.3-6.9,2.8c-2.7,1.7-11.1,5.6-18.6,5.9l-0.8,0c-1.4,0-2.9,0.1-4.3,0.1
		c-5.6,0-11.6-0.7-17.9-5.5c-4.3-3.3-5.9-10.5-4.9-15.6c1.6-8.2,7.1-16.3,11.6-22.8l2.1-3.1c3.2-4.7,11-17.4,13-21.7
		c1.2-2.5,1.1-4.1,1.1-5.3c0-0.5,0-0.7,0-0.8c0.8-1.7,1-1.8,1.3-1.8c4-0.3,6.7-0.3,9-0.3c2.2,0,4,0,6-0.2c3.1-0.4,7.2-1,10.2-1.5
		l2.1-0.3c0.1,0,0.2,0,0.2,0c1,0,1.7,0.1,2.1,0.3c-1.2,3.2-7.6,13.6-11.1,19.3c-2,3.2-3.8,6.1-4.9,8c-1,1.7-2.4,3.9-3.9,6.3
		c-5.9,9.4-9.8,15.8-9.8,19.2c0,4.7,2.7,6.1,3.9,6.7c0.8,0.4,1.6,0.6,2.5,0.6c3.1,0,6-2.4,8.7-4.7c2.7-2.3,10.9-15.7,22.2-34.3
		c4.6-7.5,9.3-15.4,10.2-16.4c1-1.2,1-1.2,4.2-1.5c0.4,0,0.9,0,1.3,0c0,0,3.5,0.1,4.5,0.1c1.7,0,3.7-0.1,6.3-0.3
		c2.3-0.2,4.9-0.4,7.2-0.6c4.3-0.3,6.8-0.5,8.1-0.8c0.2,0,0.3,0,0.4,0c0.4,0,0.7,0,0.9,0.1c-2,4.5-9.6,17.4-15.9,28
		c-12.3,20.8-13.4,22.9-13.3,24.6c0.3,4.1,2.1,6.8,5.4,8.2c1.3,0.6,2.4,0.8,3.5,0.8c3.2,0,5.5-2.3,8.3-5.6
		c2.5-2.9,25.3-41.7,30.2-50.6c1.7-3,2.1-3.1,3.4-3.2l1.2-0.1c0.9-0.1,2.3-0.1,3.9-0.2c2.9-0.1,6.5-0.2,9.7-0.7
		c4.2-0.6,9-1.1,11.3-1.3c0.6,0,1.1-0.1,1.6-0.1h0.2c-3.8,7.9-28.5,52-32.5,56.7l-0.9,1.1c-5.2,6.2-9.6,11.5-15.8,14.6
		c-5.7,2.9-18,7.6-27.1,7.6L275.3,374.2z"/>
</g>
<text transform="matrix(0.9997 2.347867e-002 -2.347867e-002 0.9997 579.0339 374.1394)" class="st0 st1 st2">®</text>
</svg>
