<svg xmlns="http://www.w3.org/2000/svg" width="1549" height="420"><clipPath id="a"><path d="M-328-1128h4753v2675H-328z"/></clipPath><g clip-path="url(#a)"><g fill="#ee3338"><path fill-rule="evenodd" d="m1049.3 199.9 2.4-1.6 19 32.5-2 1.3c-11.7 8.4-37.9 22.6-81.6 22.6-77.8 0-132.2-53.1-132.2-126.7S910.5 1 987.1 1c42.8 0 69.5 14.6 81.6 23.3l2 1.4-19.5 32.9-2.4-1.8c-5.3-4.1-25.2-17.4-59-17.4-55.4 0-92.7 34.4-92.7 88.3 0 53.8 36.4 88.6 92.7 88.6 22.9 0 43-5.5 59.5-16.4M185.4 90.8c0 52.8-38.6 85.7-100.8 85.7l-43.2.3v74.7H.1V4.1H86c60.4 0 99.4 33.9 99.4 86.7M84.3 41.1H41.4v98.4h42.9c35.6 0 58.5-19.3 58.5-49 0-30.1-22.9-49.4-58.5-49.4M670 214.9v36.6H502.5V4.1h41.2v210.8zM862.1 4.1l-94 150.8v96.6h-41.2v-96.9L634 4.1h49.4l65.7 109.7L814.7 4.1zm686.4 175.5c0 46.4-32.6 71.9-91.8 71.9h-95.2V4.1h87.9c79.6 0 91.4 41.6 91.4 66.4 0 22.1-12 41.7-31.7 52.6 24.4 10 39.4 31.2 39.4 56.5M1499.7 76c0-23.8-17.6-36.3-50.9-36.3H1402v69.1h54c27.8 0 43.7-12 43.7-32.8M1402 215.9h54c32.6 0 51.3-14 51.3-38.3 0-21.2-18.6-33.9-49.9-33.9H1402z"/><path d="M468.8 121.8c-.9-18-5.4-35.2-13.7-51.3-3.5-6.9-10.6-11.2-18.5-11.2-3.2 0-6.4.7-9.3 2.2-5 2.5-8.7 6.7-10.4 12-1.7 5.1-1.3 10.7 1.2 15.6 5.6 10.8 8.7 22.5 9.2 34.7 1.1 22.8-6.8 44.7-22.4 61.7s-36.9 26.9-60 28q-2.1.1-4.2.1c-46.3 0-84.3-35.9-86.5-81.7-1-22.8 6.9-44.8 22.5-61.7 15.6-17 36.9-26.9 60-28 10-.4 19.9.7 29.3 3.6q2.9.9 6 .9c9.1 0 17.2-6 19.8-14.6 1.6-5.2 1.1-10.8-1.5-15.7-2.6-4.8-7-8.4-12.3-9.9-14-4.2-28.6-6-43.3-5.4-34.1 1.7-65.6 16.4-88.7 41.4-23 25-34.8 57.5-33.2 91.3 1.6 33.9 16.5 65.1 41.8 87.8 23.6 21.3 54.2 33.1 86 33.1 2.1 0 4.2-.1 6.3-.2 34.2-1.6 65.7-16.3 88.7-41.3 23-25.1 34.8-57.5 33.2-91.4"/><path fill-rule="evenodd" d="M1332.9 251.6h-44.1l-20.9-51h-114l-21.2 51h-43.8L1196.3 4.1h30zM1210.8 63.3l-42.6 101.4h84.9z"/></g><g fill="#74787d"><g fill-rule="evenodd"><path d="M.1 343.4h11.1v74.9H.1zM91.8 380.8c0 22.5-15.9 37.5-39.6 37.5H24.8v-74.9h27.4c23.7 0 39.6 14.9 39.6 37.4m-11.3.1c0-16.5-11-27.6-28.4-27.6H35.9v55.2h16.2c17.4 0 28.4-11 28.4-27.6m72.7 27.7v9.7h-50.4v-74.8h50.3v9.8h-39.3v22.2h34.5v9.8h-34.5v23.3zm26.4-6.1-6.6 15.8h-11.7l32.4-74.9h8.2l32.3 74.9h-11.8s-6.5-15.8-6.4-15.8zm3.7-9.4H212l-14.3-34.3zM240.1 411l5.7-9c6.1 4.8 14 7.6 22.2 7.6 8.8 0 14.9-4.1 14.9-11.5 0-7.5-4.7-10.8-17-13.7-13.9-3.5-22.8-8.9-22.8-21.2 0-12.4 10.7-20.7 25.6-20.7 11.2 0 18.7 2.9 24.1 7.3l-5.3 8.3c-5.2-3.9-10.5-5.9-18.8-5.9s-14.4 3.7-14.4 10.5c0 6.7 5.5 9.1 16.3 11.9 14.7 3.8 23.6 9.4 23.6 22.7 0 13.9-11.3 22-26 22-11.6 0-21-3-28.1-8.3m69.4 8.3c-4 0-7.3-3.2-7.3-7.2 0-4.1 3.3-7.3 7.3-7.3s7.3 3.2 7.3 7.3c0 4-3.3 7.2-7.3 7.2m42-38.3c0-22.1 16.3-38.5 40-38.5 13.6 0 21.6 4.8 24.8 7.1l-5.2 8.7c-2-1.5-8.2-5.5-18.7-5.5-17.7 0-29.5 11.1-29.5 28.1 0 16.9 11.5 28.2 29.5 28.2 10.5 0 16.5-3.8 18.8-5.2l5 8.6c-3.1 2.2-11.1 6.8-24.7 6.8-24.1 0-40-16.4-40-38.3m107.8 38.3c-21.8 0-39.5-17.2-39.5-38.4s17.7-38.4 39.5-38.4c21.9 0 39.5 17.2 39.5 38.4s-17.6 38.4-39.5 38.4m28.2-38.4c0-15.6-12.6-28.3-28.2-28.3s-28.2 12.7-28.2 28.3 12.6 28.3 28.2 28.3 28.2-12.7 28.2-28.3"/></g><path d="M572.9 343.4v75.8h-6.4L518.4 363v55.3h-10.9v-75.6h6.6l47.8 56.1v-55.3s11 0 11-.1m77.1 0v75.8h-6.5L595.4 363v55.3h-10.8v-75.6h6.5l47.9 56.1v-55.3s11 0 11-.1m61.9 65.2v9.7h-50.4v-74.8h50.3v9.8h-39.2v22.2H707v9.8h-34.4v23.3zM716.8 380.9c0-22 16.3-38.4 40-38.4 13.6 0 21.7 4.8 24.8 7l-5.2 8.8c-1.9-1.5-8.2-5.6-18.7-5.6-17.6 0-29.5 11.2-29.5 28.1s11.5 28.2 29.5 28.2c10.5 0 16.6-3.7 18.8-5.2l5.1 8.7c-3.1 2.2-11.1 6.8-24.8 6.8-24 0-40-16.4-40-38.4"/><path fill-rule="evenodd" d="M854.4 353.2H829v65.1h-11.1v-65.1H792v-9.8h62.4zm59.7 55.4v9.7h-50.5v-74.8h50.3v9.8h-39.2v22.2h34.4v9.8h-34.4v23.3zm80.3-27.8c0 22.5-15.8 37.5-39.6 37.5h-27.3v-74.9h27.3c23.8 0 39.6 15 39.6 37.4m-11.3.2c0-16.6-10.9-27.7-28.4-27.7h-16.1v55.2h16.1c17.4 0 28.4-11 28.4-27.5"/><path d="M1006.9 419.3c-4 0-7.3-3.3-7.3-7.3s3.3-7.2 7.3-7.2 7.3 3.2 7.3 7.2-3.3 7.3-7.3 7.3"/></g></g></svg>