<?xml version="1.0" encoding="UTF-8" standalone="no"?>
<svg
   xmlns:svg="http://www.w3.org/2000/svg"
   xmlns="http://www.w3.org/2000/svg"
   version="1.1"
   width="819.19122"
   height="119.75608"
   id="svg3450">
  <defs
     id="defs3452" />
  <g
     transform="translate(-13.261518,-449.627)"
     id="layer1">
    <path
       d="m 138.41641,509.35551 c 0,16.69006 -6.10924,30.69814 -18.3135,42.02897 -12.21375,11.33082 -27.0098,16.9986 -44.383415,16.9986 -16.974877,0 -31.457636,-5.5681 -43.457772,-16.69955 -12.000136,-11.11722 -18.000205,-24.84523 -18.000205,-41.13656 0,-16.89417 5.900384,-31.10161 17.691656,-42.63181 11.99539,-11.52545 26.791444,-17.28816 44.37867,-17.28816 17.183739,0 31.766186,5.66304 43.771066,16.99386 12.20426,11.33083 18.3135,25.23921 18.3135,41.73465"
       id="path186"
       style="fill:#0072ba;fill-opacity:1;fill-rule:nonzero;stroke:none" />
    <path
       d="m 130.96854,509.64032 c 0,-14.5065 -5.38772,-26.91011 -16.14417,-37.24883 -10.75645,-10.33873 -23.696472,-15.50809 -38.796327,-15.50809 -14.900486,0 -27.731328,5.16936 -38.492526,15.50809 -10.765945,10.12511 -16.134678,22.34835 -16.134678,36.65547 0,14.92896 5.278541,27.63639 15.830876,38.16025 10.552335,10.34347 23.482863,15.50809 38.796328,15.50809 15.099855,0 28.039877,-5.16462 38.796327,-15.50809 10.75645,-10.52386 16.14417,-23.0509 16.14417,-37.56689"
       id="path188"
       style="fill:#ffffff;fill-opacity:1;fill-rule:nonzero;stroke:none" />
    <path
       d="m 72.206797,533.33205 -32.720309,0 c -2.401926,-3.21365 -4.205744,-6.40355 -5.406706,-9.60296 l 4.803851,0 0,-26.04618 -6.602922,0 c 0.602855,-3.01902 1.799071,-6.30387 3.602888,-9.89252 l 36.323198,0 0,-12.87357 -27.180689,0.10925 c 5.354491,-4.60448 10.71373,-7.9463 16.072968,-10.00645 l 30.622183,0 c 6.503239,2.91459 11.743801,6.22793 15.735941,9.93524 l -27.142716,-0.038 0,12.87356 36.622256,0 c 1.49052,3.15194 2.64401,6.44154 3.46048,9.87829 l -40.082736,0.0143 0,8.0792 22.818296,-0.019 0,9.58873 -22.818296,0.01 0,8.38775 38.036826,-0.01 c -1.34337,3.5744 -3.10921,6.78805 -5.31652,9.61245 l -32.720306,0 -0.01899,20.66321 -8.107688,0 0.01899,-20.66321"
       id="path190"
       style="fill:#0072ba;fill-opacity:1;fill-rule:nonzero;stroke:none" />
    <path
       d="m 48.492656,497.67035 0,8.09375 23.71875,0 0,-8.09375 -23.71875,0 z m 0,17.65625 0,8.40625 23.71875,0 0,-8.40625 -23.71875,0 z"
       id="path192"
       style="fill:#ffffff;fill-opacity:1;fill-rule:nonzero;stroke:none" />
    <path
       d="m 159.83438,566.6647 671.61839,0 0,-114.31933 -671.61839,0 0,114.31933 z"
       id="path196"
       style="fill:#0072ba;fill-opacity:1;fill-rule:nonzero;stroke:none" />
    <path
       d="m 635.43016,466.92035 c -1.42596,0.0427 -3.00216,0.50019 -4.53125,1.40625 -4.08708,2.41143 -6.37817,7.06246 -5.125,10.4375 1.2864,3.35605 5.64116,4.12542 9.71875,1.71875 4.07757,-2.41616 6.35168,-7.08619 5.09375,-10.4375 -0.79213,-2.10643 -2.77965,-3.19616 -5.15625,-3.125 z m -451.65625,0.625 0,11.6875 23.125,0 0,52.125 15.90625,0 0,-52.125 23.09375,0 0,-11.6875 -62.125,0 z m 99.6875,0 0,63.8125 13.53125,0 0,-63.8125 -13.53125,0 z m -27.6875,19.84375 c -13.27705,0 -22.71875,9.3349 -22.71875,22.53125 0,13.46219 9.83844,22.28125 25,22.28125 3.37029,0 11.48409,-0.003 19.25,-5.71875 l 0,-8.53125 c -6.36084,4.595 -10.57905,6.1875 -16,6.1875 -8.51591,0 -13.76305,-4.48528 -14.21875,-12.15625 l 30.96875,0 c 0.65507,-15.71221 -9.73996,-24.59375 -22.28125,-24.59375 z m 69.53125,0 c -13.29129,0 -22.75,9.3349 -22.75,22.53125 0,13.46219 9.80719,22.28125 24.96875,22.28125 3.37504,0 11.52009,-0.003 19.28125,-5.71875 l 0,-8.53125 c -6.36084,4.595 -10.56007,6.1875 -16,6.1875 -8.49694,0 -13.74406,-4.48528 -14.21875,-12.15625 l 30.96875,0 c 0.65033,-15.71221 -9.72295,-24.59375 -22.25,-24.59375 z m 56.1875,0 c -2.72946,0 -5.25116,0.45766 -7.78125,1.46875 -2.43041,1.12026 -4.87377,2.72941 -7.21875,4.875 l 0,-5.5 -13.5625,0 0,43.125 13.5625,0 0,-28.90625 c 3.2801,-3.93991 6.81959,-5.96875 10.375,-5.96875 4.02536,0 8.25,2.32311 8.25,9.34375 l 0,25.53125 13.5625,0 0,-27.59375 c 3.08548,-4.77062 6.74006,-7.28125 10.65625,-7.28125 4.97949,0 7.96875,3.42754 7.96875,9.59375 l 0,25.28125 13.5625,0 0,-27.71875 c 0,-9.81183 -7.02719,-16.25 -16.84375,-16.25 -6.45103,0 -11.41569,2.69574 -17.03125,9.15625 -2.98105,-6.1757 -8.01415,-9.15625 -15.5,-9.15625 z m 77.59375,0 c -13.2818,0 -22.75,9.3349 -22.75,22.53125 0,13.46219 9.83844,22.28125 25,22.28125 3.36555,0 11.5106,-0.003 19.28125,-5.71875 l 0,-8.53125 c -6.37507,4.595 -10.61505,6.1875 -16.03125,6.1875 -8.50643,0 -13.75355,-4.48528 -14.21875,-12.15625 l 30.96875,0 c 0.65506,-15.71221 -9.70872,-24.59375 -22.25,-24.59375 z m 49.78125,0 c -14.21219,0 -24.40625,9.3349 -24.40625,22.53125 0,13.46219 9.79769,22.28125 24.96875,22.28125 4.58549,0 9.18032,-0.96002 14.625,-2.90625 l 0,-9.71875 c -6.00006,2.24053 -8.90739,3 -12.1875,3 -7.7754,0 -12.90625,-5.06201 -12.90625,-12.71875 0,-7.58078 5.23884,-12.46875 13.375,-12.46875 3.37979,0 7.47584,1.02647 11.03125,2.90625 l 0,-10.125 c -4.50005,-1.6804 -10.09964,-2.78125 -14.5,-2.78125 z m 39.125,0 c -6.82129,0 -13.08894,1.75352 -18.71875,5.21875 l 0,11.03125 c 4.31967,-4.38612 10.48055,-7.15625 15.90625,-7.15625 5.90038,0 7.7943,3.14038 7.5,7.15625 -18.04767,5.60608 -25.65625,7.70399 -25.65625,18 0,5.41145 5.15855,10.5625 12.09375,10.5625 4.67094,0 8.99243,-1.31009 14.21875,-4.875 0.9209,3.46049 3.08619,4.875 7.5625,4.875 3.64086,0 8.98295,-1.69696 12.71875,-3.9375 l 0,-7.5625 c -3.17566,2.24527 -4.20411,2.4375 -5.125,2.4375 -1.40982,0 -2.25,-0.87616 -2.25,-3.03125 l 0,-19.625 c 0,-9.45581 -7.37963,-13.09375 -18.25,-13.09375 z m 54.96875,0 c -5.49216,0 -9.73058,2.049 -14.03125,7 l 0,-6.15625 -13.5625,0 0,43.125 13.5625,0 0,-27.78125 c 3.56966,-5.326 6.08145,-7.09375 9.4375,-7.09375 3.84024,0 6.75,2.49597 6.75,8.5625 l 0,26.3125 13.59375,0 0,-27.4375 c 0,-12.72166 -8.98094,-16.53125 -15.75,-16.53125 z m 62.5625,0 c -11.41627,0 -20.03125,9.3527 -20.03125,21.875 0,13.78021 8.42509,22.9375 21.15625,22.9375 3.92093,0 8.03002,-1.12497 11.125,-3 l 0,23.53125 13.5625,0 0,-64.5 -13.5625,0 0,3.75 c -3.7358,-3.18516 -7.65976,-4.59375 -12.25,-4.59375 z m 104.3125,0 c -13.28655,0 -22.75,9.3349 -22.75,22.53125 0,13.46219 9.82142,22.28125 24.96875,22.28125 3.3703,0 11.49635,-0.003 19.28125,-5.71875 l 0,-8.53125 c -6.36558,4.595 -10.56204,6.1875 -15.96875,6.1875 -8.5349,0 -13.77056,-4.48528 -14.25,-12.15625 l 30.96875,0 c 0.65508,-15.71221 -9.70397,-24.59375 -22.25,-24.59375 z m -143.40625,0.78125 0,43.1875 13.53125,0 0,-43.1875 -13.53125,0 z m 72.21875,0.0625 0,27.59375 c 0,11.1362 7.30133,16.375 15.8125,16.375 5.42094,0 9.63682,-2.049 13.9375,-7 l 0,6.15625 13.59375,0 0,-43.125 -13.65625,0 0,27.5 c -1.43356,4.20574 -5.1562,7.40625 -9.28125,7.40625 -3.56016,0 -6.84375,-2.16449 -6.84375,-8.25 l 0,-26.65625 -13.5625,0 z m -441.90625,7.1875 c 5.23107,0 8.78361,3.57311 9.34375,9.46875 l -18.71875,0 c 0.56014,-5.97159 4.0395,-9.46875 9.375,-9.46875 z m 69.46875,0 c 5.24531,0 8.81012,3.57311 9.375,9.46875 l -18.71875,0 c 0.56488,-5.97159 4.01774,-9.46875 9.34375,-9.46875 z m 133.8125,0 c 5.24531,0 8.80538,3.57311 9.375,9.46875 l -18.75,0 c 0.56963,-5.97159 4.05374,-9.46875 9.375,-9.46875 z m 310.75,0 c 5.23581,0 8.77413,3.57311 9.34375,9.46875 l -18.71875,0 c 0.57438,-5.97159 4.04899,-9.46875 9.375,-9.46875 z m -101.40625,1.59375 c 2.9858,0 5.14989,0.85796 8.40625,3.46875 l 0,19.84375 c -2.72471,1.95096 -5.03359,2.8125 -7.84375,2.8125 -6.65514,0 -10.6875,-5.07903 -10.6875,-13.125 0,-8.23111 3.655,-13 10.125,-13 z m -116.6875,13.46875 0,10.375 c -2.22155,2.06964 -4.97466,3.28125 -7.5,3.28125 -2.44465,0 -4.375,-2.02766 -4.375,-4.5625 0,-4.30069 3.83851,-6.19815 11.875,-9.09375 z"
       id="path198"
       style="fill:#ffffff;fill-opacity:1;fill-rule:nonzero;stroke:none" />
  </g>
</svg>
